<svg xmlns="http://www.w3.org/2000/svg" width="2149" height="611" fill="none" viewBox="0 0 2149 611"><path fill="#000" d="M1176.88 72.8202C1192.5 57.3941 1207.99 48.7213 1228.09 44.1429C1239.87 41.4616 1262.93 42.4932 1274.88 46.2367C1293.5 52.062 1310.67 63.3404 1322.17 77.2855C1325.09 80.8376 1327.49 84.1278 1327.48 84.5971C1327.48 85.065 1319.45 89.7763 1309.65 95.0646L1298.77 100.933C1294.61 103.175 1289.49 102.531 1286.02 99.3305C1282.82 96.3873 1275.75 91.7624 1270.29 89.0505C1260.81 84.3418 1259.76 84.1198 1246.91 84.1198C1234.05 84.1198 1233.02 84.3392 1223.35 89.109C1207.01 97.169 1194.37 112.794 1189.7 130.694C1187.17 140.38 1187.08 157.633 1189.52 166.759C1198.27 199.571 1231.67 220.429 1261.63 211.794C1271.32 209.004 1277.09 205.694 1284.7 198.574C1290.71 192.942 1298.19 183.577 1298.19 181.673C1298.19 181.075 1291.45 180.417 1283.21 180.211C1274.87 180.002 1268.23 173.185 1268.23 164.848V161.888C1268.23 151.977 1276.26 143.942 1286.17 143.942H1308.18H1336.76C1342.99 143.942 1347.99 149.081 1347.81 155.305C1346.53 200.997 1314.15 241.356 1269.79 252.553C1254.44 256.429 1231.47 255.504 1216.29 250.398C1174.06 236.198 1146.36 196.226 1146.26 149.359C1146.19 117.144 1155.46 93.9745 1176.88 72.8202Z"/><path fill="#000" d="M837.547 246.002C830.872 220.374 786.795 47.5036 786.795 46.9532C786.795 46.5571 796.317 46.2327 807.955 46.2327H820.516C825.587 46.2327 830.025 49.6415 831.333 54.5413C832.554 59.1117 839.967 88.0801 847.808 118.916L852.37 136.856C854.929 146.918 869.221 146.923 871.786 136.863C877.133 115.897 884.554 86.9275 888.276 72.4878L890.309 64.602C893.095 53.7892 902.846 46.2327 914.013 46.2327H923.007C928.891 46.2327 934.04 50.1865 935.559 55.8707C936.976 61.1709 944.381 90.1366 952.016 120.239L955.719 134.843C958.405 145.432 973.444 145.446 976.15 134.862C981.788 112.802 989.22 83.8367 992.662 70.4938L993.646 66.6819C996.752 54.644 1007.61 46.2327 1020.04 46.2327C1036.09 46.2327 1041.14 46.6315 1041.08 47.8944C1041.04 48.809 1029.46 94.7216 1015.36 149.924L995.53 227.528C992.096 240.966 980.089 250.44 966.221 250.654L947.914 250.937C944.869 250.984 942.186 248.947 941.413 246.002C940.689 243.243 934.258 218.046 927.12 190.01C923.697 176.563 904.595 176.565 901.174 190.012L899.99 194.663L891.632 227.52C888.213 240.96 876.211 250.44 862.346 250.654L844.034 250.937C840.993 250.984 838.313 248.946 837.547 246.002Z"/><path fill="#000" d="M1092.43 250.956C1081.03 250.956 1071.79 241.714 1071.79 230.314V148.594V66.875C1071.79 55.4746 1081.03 46.2327 1092.43 46.2327C1103.83 46.2327 1113.08 55.4745 1113.08 66.8749V148.594V230.314C1113.08 241.714 1103.83 250.956 1092.43 250.956Z"/><path fill="#000" fill-rule="evenodd" d="M1446.68 44.7544C1421.77 51.5223 1400.88 66.4126 1386.22 87.8594C1372.49 107.956 1366.08 135.02 1368.93 160.858C1371.81 186.853 1381.33 206.285 1400.74 225.774C1411.64 236.725 1415.13 239.326 1426.04 244.616C1441.37 252.054 1453.78 254.944 1470.37 254.944C1541.38 254.944 1590.19 179.013 1563.94 109.378C1558.54 95.0486 1550.36 82.4382 1539.32 71.4137C1527.65 59.7684 1515 51.8559 1499.95 46.7857C1485.41 41.887 1460.7 40.9458 1446.68 44.7544ZM1412.7 128.365C1419.08 107.769 1437.29 89.5915 1456.33 84.8231C1459.08 84.1345 1466.18 83.7317 1472.1 83.9284C1481.27 84.2315 1484.37 84.9946 1492.9 89.0372C1524.87 104.193 1538.54 142.856 1523.76 176.316C1509.96 207.559 1475.66 222.146 1447.22 208.863C1430.62 201.11 1416.63 184.405 1411.91 166.717C1409.18 156.49 1409.55 138.546 1412.7 128.365Z" clip-rule="evenodd"/><path fill="#000" fill-rule="evenodd" d="M1596.5 148.594V230.314C1596.5 241.714 1605.75 250.956 1617.15 250.956C1628.55 250.956 1637.79 241.714 1637.79 230.314V211.014V180.037C1637.79 175.151 1641.86 171.251 1646.74 171.465C1652.33 171.71 1657.4 174.779 1660.21 179.61L1678.5 211.075L1689.2 229.472C1696.71 242.391 1710.44 250.429 1725.38 250.653C1735.97 250.813 1742.69 239.352 1737.37 230.187L1725.59 209.868C1712.46 187.237 1701.71 168.191 1701.71 167.545C1701.71 166.897 1703.86 165.346 1706.49 164.095C1712.9 161.044 1725.15 149.307 1729.3 142.251C1740.56 123.059 1740.56 93.9532 1729.28 75.4789C1724.97 68.4186 1715.49 58.766 1708.57 54.3804C1696.5 46.7299 1692.45 46.2327 1642.21 46.2327C1616.97 46.2327 1596.5 66.6947 1596.5 91.936V148.594ZM1657.14 129.983C1646.45 129.983 1637.79 121.319 1637.79 110.63V105.273V101.542C1637.79 90.0289 1647.25 80.7652 1658.76 81.0118C1678 81.4239 1680.15 81.719 1684.75 84.5678C1695.28 91.1044 1699.42 105.553 1693.86 116.41C1688.04 127.81 1682.15 129.983 1657.14 129.983Z" clip-rule="evenodd"/><path fill="#000" fill-rule="evenodd" d="M478.089 1.57804C471.285 2.49902 465.531 3.43687 465.301 3.6629C464.188 4.75706 471.067 51.1885 472.86 54.6756C479.412 67.4254 498.275 63.782 501.435 49.1565C501.77 47.6103 500.701 35.9715 499.063 23.2925C495.588 -3.59025 497.979 -1.11406 478.089 1.57804ZM525.885 3.14674C525.885 3.81808 527.16 14.2761 528.719 26.3872C531.005 44.1501 531.332 49.5973 530.414 54.5665C527.706 69.2168 517.911 82.2983 505.329 88.0739C499.058 90.9526 497.105 91.2877 486.524 91.3057C476.044 91.3237 473.992 90.9875 468.29 88.3145C459.761 84.3168 454.653 80.1404 449.968 73.3336C444.174 64.9132 442.843 59.872 439.326 33.041C437.557 19.5389 435.833 8.21608 435.496 7.87872C435.015 7.39743 255.905 29.8192 255.249 30.4433C255.157 30.5299 256.59 41.9877 258.432 55.9036C262.208 84.4315 261.954 90.4848 256.509 101.613C252.751 109.296 243.574 118.771 236.688 122.08C219.803 130.195 198.729 126.839 184.126 113.712C174.971 105.481 173.291 100.676 169.716 72.4903C168.011 59.0388 166.188 48.032 165.667 48.032C163.361 48.032 148.18 58.9342 142.307 64.8064C134.446 72.6668 125.744 85.7562 121.755 95.7195C118.616 103.56 115.403 119.457 115.403 127.15C115.403 130.992 127.67 230.302 128.229 230.991C128.468 231.286 183.861 225.734 186.921 225.109L189.273 224.628L187.233 209.205C186.111 200.721 185.409 193.564 185.676 193.299C186.904 192.071 543.239 147.079 543.854 148.074C544.225 148.674 551.525 203.755 560.075 270.478C570.605 352.634 575.355 393.025 574.795 395.617C572.74 405.128 565.202 414.332 556.967 417.386C554.407 418.335 508.836 424.677 455.698 431.48C402.559 438.283 358.948 443.983 358.783 444.147C358.619 444.313 359.852 457.847 361.525 474.226C363.938 497.869 364.906 504.071 366.221 504.324C368.782 504.815 560.355 479.988 568.405 478.121C583.967 474.512 603.273 462.79 613.179 450.935C629.147 431.825 636.265 413.545 636.294 391.573C636.312 378.38 597.633 76.7736 594.409 64.9638C586.706 36.7451 562.517 11.828 534.958 3.72362C527.771 1.60953 525.885 1.4892 525.885 3.14674ZM207.099 36.3999C200.935 37.2905 195.723 38.189 195.515 38.3971C195.076 38.8356 200.709 83.6061 201.574 86.5524C202.749 90.5557 207.855 95.2382 212.369 96.4538C216.118 97.4625 217.864 97.341 221.942 95.7836C228.136 93.4176 231.229 88.7519 231.231 81.7675C231.233 76.9389 227.394 44.1254 226.068 37.6301C225.321 33.9777 224.317 33.9125 207.099 36.3999ZM461.908 217.362C446.205 219.441 433.055 221.445 432.686 221.814C432.054 222.446 439.049 280.941 439.854 281.745C440.06 281.952 453.492 280.439 469.702 278.381C488.758 275.962 499.36 274.156 499.698 273.272C500.567 271.01 492.799 214.101 491.584 213.831C490.966 213.694 477.612 215.283 461.908 217.362ZM368.44 229.33C354.523 231.176 342.925 232.887 342.666 233.134C342.409 233.379 343.894 246.99 345.969 263.379C349.526 291.477 349.873 293.177 352.054 293.177C354.866 293.177 407.876 286.505 409.558 285.94C410.733 285.545 410.559 283.847 404.873 240.044L403.01 225.706L398.377 225.84C395.829 225.913 382.357 227.484 368.44 229.33ZM166.573 268.487C98.883 273.987 37.9811 288.988 12.1568 306.524C1.37066 313.848 -2.13137 320.363 1.22671 326.856C10.3484 344.495 74.4386 352.589 148.536 345.461C217.002 338.875 276.13 322.065 295.059 303.806C300.276 298.773 300.964 297.579 300.964 293.546C300.964 287.647 298.327 284.361 290.071 279.969C282.573 275.98 270.682 272.753 253.73 270.106C239.731 267.919 185.869 266.92 166.573 268.487ZM472.702 307.208C457.369 309.23 444.52 311.188 444.148 311.56C443.332 312.376 450.509 369.853 451.578 371.047C452.181 371.722 494.338 366.927 508.547 364.566L512.014 363.99L508.318 335.612C506.285 320.004 504.599 306.348 504.57 305.266C504.506 302.862 506.643 302.731 472.702 307.208ZM808.46 314.027C795.626 317.484 787.918 326.06 787.918 336.887C787.918 344.377 789.934 349.103 795.041 353.586C798.824 356.908 811.251 361.773 815.951 361.773C820.029 361.773 828.592 365.513 830.227 368.007C835.312 375.768 819.094 381.969 808.219 376.422C805.827 375.201 803.667 373.594 803.419 372.849C802.838 371.108 787.918 376.195 787.918 378.135C787.918 379.575 791.882 385.054 794.64 387.422C798.006 390.316 807.696 394.197 813.4 394.938C825.813 396.55 840.678 389.82 845.162 380.557C852.971 364.426 841.865 349.927 818.633 345.924C808.628 344.2 806.319 343.269 804.74 340.318C800.828 333.011 814.133 326.366 824.676 330.362C826.417 331.021 828.944 332.593 830.29 333.853L832.738 336.147L840.13 333.687C844.196 332.334 847.522 330.99 847.522 330.701C847.522 329.111 843.927 323.709 841.156 321.137C836.917 317.203 832.472 315.083 825.256 313.556C817.844 311.987 815.826 312.043 808.46 314.027ZM885.679 313.765C874.969 316.791 864.936 324.901 860.048 334.481C857.04 340.377 854.96 351.755 855.719 358.163C859.024 386.065 886.191 402.731 910.22 391.6C915.429 389.186 926.251 380.525 926.24 378.779C926.238 378.393 922.972 376.391 918.983 374.328L911.73 370.578L907.301 374.138C899.426 380.466 889.247 380.155 881.291 373.345C869.581 363.324 869.115 345.691 880.28 335.134C888.721 327.154 900.319 327.096 908.969 334.995C911.366 337.183 911.404 337.177 918.247 333.723C922.027 331.815 925.12 329.561 925.12 328.714C925.12 326.298 916.422 319.054 909.976 316.103C902.758 312.799 892.568 311.818 885.679 313.765ZM1526.7 313.765C1515.01 317.071 1505.27 325.494 1499.97 336.899C1495.97 345.51 1495.8 360.28 1499.59 369.81C1502.47 377.035 1509.37 385.431 1515.75 389.458C1522.1 393.465 1532.64 395.879 1539.86 394.977C1568.41 391.41 1583.96 357.674 1568.9 331.973C1560.54 317.705 1541.63 309.547 1526.7 313.765ZM1719.18 314.033C1707.84 317.172 1701.37 323.007 1698.88 332.349C1697.35 338.123 1698.12 342.692 1701.69 348.897C1705.1 354.846 1712.17 358.589 1725.82 361.684C1731.68 363.014 1737.63 364.854 1739.03 365.775C1743.62 368.78 1741.81 375.308 1735.82 377.398C1728.5 379.947 1719.84 378.523 1714.98 373.969L1712.55 371.697L1705.7 374.196C1701.93 375.569 1698.85 377.258 1698.85 377.948C1698.86 380.584 1703.43 386.538 1707.52 389.235C1721.49 398.455 1741.99 396.451 1752.72 384.818C1760.19 376.711 1760.42 365.196 1753.26 357.274C1748.14 351.605 1742.14 348.792 1729.14 345.953C1717.56 343.426 1714.31 341.441 1714.82 337.203C1715.82 328.982 1732.34 326.438 1740.45 333.259L1743.87 336.142L1751.16 333.569C1755.17 332.153 1758.45 330.709 1758.45 330.36C1758.45 330.01 1757.48 328.139 1756.3 326.2C1749.99 315.858 1732.87 310.245 1719.18 314.033ZM1830.35 313.765C1808.84 319.843 1796.07 342.202 1801.66 364.002C1808 388.749 1832.86 401.669 1854.87 391.658C1863.36 387.797 1870.99 380.05 1875.18 371.014C1879.26 362.242 1879.43 347.587 1875.57 337.88C1868.48 320.05 1847.57 308.898 1830.35 313.765ZM2102.98 313.431C2091.34 315.816 2080.26 324.573 2074.78 335.725C2071.97 341.462 2071.66 343.264 2071.66 353.901C2071.66 364.662 2071.95 366.3 2074.93 372.386C2083.38 389.626 2101.04 398.339 2118.47 393.873C2135.62 389.48 2147.04 376.098 2148.43 358.749L2149 351.652H2133.1H2117.2V358.962V366.271H2123.53H2129.86L2127.1 369.926C2120.21 379.064 2107.12 381.13 2097.76 374.559C2083.85 364.788 2083.95 342.955 2097.96 333.108C2102.09 330.209 2103.8 329.724 2109.9 329.724C2116.13 329.724 2117.67 330.184 2122.24 333.407L2127.47 337.089L2134.14 333.531C2137.82 331.574 2140.8 329.665 2140.78 329.287C2140.7 327.98 2135.74 322.78 2131.75 319.814C2124.29 314.279 2112.07 311.569 2102.98 313.431ZM383.688 318.622C367.643 320.738 354.322 322.663 354.085 322.898C353.406 323.579 360.856 381.346 361.758 382.397C362.578 383.351 420.099 376.577 421.482 375.362C421.894 375.001 420.51 361.548 418.41 345.467C416.308 329.387 414.579 315.851 414.569 315.387C414.558 314.922 414.17 314.595 413.705 314.659C413.241 314.722 399.733 316.505 383.688 318.622ZM935.242 353.901V393.26H943.676H952.111V376.392V359.524H966.73H981.35V376.392V393.26H989.223H997.095V353.901V314.543H989.223H981.35V328.6V342.656H966.73H952.111V328.6V314.543H943.676H935.242V353.901ZM1009.47 353.901V393.26H1035.33H1061.2V385.388V377.516H1043.77H1026.33V368.52V359.524H1039.83H1053.33V351.09V342.656H1039.83H1026.33V336.5V330.345L1043.48 330.035L1060.64 329.724L1060.97 322.134L1061.3 314.543H1035.38H1009.47V353.901ZM1072.44 353.996V393.45L1091.28 393.06C1109.32 392.689 1110.37 392.54 1116.06 389.553C1128.49 383.03 1135.29 373.917 1137.77 360.435C1141.15 342.102 1129.99 323.082 1112.03 316.558C1107.94 315.072 1102.86 314.626 1089.59 314.59L1072.44 314.543V353.996ZM1146.88 342.375C1147.21 368.808 1147.36 370.501 1149.88 376.07C1153.04 383.065 1161.38 391.223 1167.54 393.347C1174.16 395.635 1185.61 395.224 1191.75 392.479C1198.29 389.556 1204.75 383.129 1207.82 376.492C1210.02 371.74 1210.24 369.085 1210.56 342.937L1210.91 314.543H1203.04H1195.18L1194.82 340.688C1194.51 363.297 1194.19 367.335 1192.44 370.537C1186.57 381.288 1170.49 381.147 1165.34 370.3C1163.85 367.146 1163.54 362.043 1163.54 340.518V314.543H1155.03H1146.52L1146.88 342.375ZM1222.02 353.901V393.26H1246.2H1270.37V385.388V377.516H1254.63H1238.89V346.03V314.543H1230.45H1222.02V353.901ZM1281.62 353.901V393.26H1306.92H1332.23V385.388V377.516H1315.36H1298.49V368.556V359.595L1311.7 359.279L1324.92 358.962V351.09V343.218L1311.7 342.901L1298.49 342.585V336.435V330.286H1315.36H1332.23V322.415V314.543H1306.92H1281.62V353.901ZM1370.46 353.901V393.26H1378.9H1387.33V378.079V362.897L1396.05 362.873C1406.16 362.845 1411.83 360.716 1417.35 354.882C1421.87 350.104 1423.48 345.85 1423.48 338.72C1423.48 328.99 1418.79 320.792 1410.93 316.782C1407.09 314.822 1404.29 314.543 1388.5 314.543H1370.46V353.901ZM1433.44 353.901V393.26H1441.31H1449.19V378.008V362.755L1452.7 363.108C1455.92 363.431 1456.92 364.692 1464.79 378.338L1473.37 393.217L1482.64 393.238C1487.75 393.249 1491.92 393.066 1491.92 392.831C1491.92 392.595 1487.86 385.435 1482.9 376.92C1477.95 368.404 1474.02 361.349 1474.19 361.241C1482.52 355.797 1485.51 351.742 1487.4 343.317C1489.7 333.045 1484.3 321.511 1474.96 316.743C1471.19 314.822 1468.29 314.543 1452.04 314.543H1433.44V353.901ZM1583.65 325.507C1585.83 331.538 1592.27 349.266 1597.95 364.902L1608.28 393.335L1618.81 393.015L1629.34 392.697L1643.27 354.464C1650.93 333.435 1657.2 315.83 1657.22 315.339C1657.23 314.849 1653.37 314.596 1648.64 314.777L1640.04 315.105L1629.32 344.679L1618.59 374.254L1607.83 344.413L1597.07 314.571L1588.38 314.558L1579.68 314.543L1583.65 325.507ZM1668.48 353.901V393.26H1676.92H1685.35V353.901V314.543H1676.92H1668.48V353.901ZM1771.95 353.901V393.26H1779.82H1787.69V353.901V314.543H1779.82H1771.95V353.901ZM1887.78 353.901V393.26H1896.2H1904.61L1904.91 369.585L1905.21 345.912L1919.36 369.304L1933.51 392.697L1942.7 393.023L1951.89 393.351V353.946V314.543H1943.45H1935.02V338.965V363.388L1920.24 338.965L1905.45 314.543H1896.62H1887.78V353.901ZM1965.38 353.901V393.26H1973.82H1982.25V353.901V314.543H1973.82H1965.38V353.901ZM1996.87 353.901V393.26H2004.72H2012.57L2012.87 368.874L2013.18 344.489L2027.8 368.832L2042.42 393.173L2051.69 393.216L2060.97 393.26V353.901V314.543H2052.56H2044.15L2043.84 338.706L2043.54 362.867L2028.92 338.714L2014.3 314.56L2005.59 314.551L1996.87 314.543V353.901ZM1387.33 337.034V346.03H1395.12C1402.2 346.03 1403.13 345.759 1405.24 343.067C1408.47 338.961 1408.17 335.205 1404.29 331.324C1401.38 328.413 1400.22 328.037 1394.17 328.037H1387.33V337.034ZM1449.19 337.034V346.03H1458.1C1466.39 346.03 1467.18 345.823 1469.35 343.067C1472.76 338.73 1472.36 334.431 1468.22 330.949C1465.23 328.43 1463.71 328.037 1456.97 328.037H1449.19V337.034ZM1527.35 330.76C1522.84 332.776 1517.18 338.877 1515.03 344.026C1512.76 349.479 1512.79 359.78 1515.1 364.359C1520.7 375.448 1533.05 381.332 1542.89 377.592C1547.38 375.883 1553.98 369.433 1556.18 364.594C1558.7 359.038 1558.86 349.612 1556.53 344.026C1551.62 332.286 1537.89 326.042 1527.35 330.76ZM1830.99 330.926C1815.91 338.753 1812.09 359.173 1823.46 371.154C1832.38 380.556 1844.9 381.179 1853.9 372.668C1863.99 363.127 1864.68 346.438 1855.39 336.649C1848.73 329.629 1838.23 327.167 1830.99 330.926ZM1088.19 353.901V377.516L1094.65 377.509C1103.34 377.502 1108.14 376.015 1113.36 371.715C1124.55 362.48 1124.66 345.406 1113.57 336.27C1108.47 332.067 1102.81 330.286 1094.52 330.286H1088.19V353.901ZM295.903 348.51C256.813 368.952 187.294 382.773 107.531 385.965C75.2719 387.256 35.5576 383.408 14.6916 376.971C9.82545 375.47 5.70826 374.375 5.54407 374.541C5.15608 374.928 15.1977 471.007 15.7994 472.671C16.4404 474.443 31.7733 478.39 46.9127 480.681C63.2218 483.148 129.94 483.458 154.202 481.18C219.324 475.065 279.097 461.743 308.692 446.747C311.633 445.257 314.686 443.258 315.478 442.303C316.659 440.881 316.078 432.392 312.264 395.267C309.703 370.351 307.251 348.447 306.816 346.592L306.024 343.218L295.903 348.51ZM808.46 448.969C795.626 452.426 787.918 461.003 787.918 471.83C787.918 479.319 789.934 484.045 795.041 488.529C798.824 491.851 811.251 496.715 815.951 496.715C820.029 496.715 828.592 500.455 830.227 502.95C835.312 510.71 819.094 516.912 808.219 511.364C805.827 510.143 803.667 508.536 803.419 507.792C802.838 506.05 787.918 511.137 787.918 513.077C787.918 514.518 791.882 519.996 794.64 522.365C798.006 525.258 807.696 529.14 813.4 529.881C825.813 531.492 840.678 524.762 845.162 515.499C852.971 499.368 841.865 484.87 818.633 480.866C808.628 479.142 806.319 478.211 804.74 475.261C800.828 467.953 814.133 461.309 824.676 465.304C826.417 465.963 828.944 467.535 830.29 468.796L832.738 471.09L840.13 468.629C844.196 467.277 847.522 465.933 847.522 465.644C847.522 464.054 843.927 458.651 841.156 456.08C836.917 452.145 832.472 450.025 825.256 448.498C817.844 446.929 815.826 446.986 808.46 448.969ZM859.893 488.844V528.202H885.196H910.5V520.33V512.459H893.069H875.637V503.462V494.466H889.133H902.628V486.032V477.598H889.133H875.637V471.414V465.229H893.069H910.5V457.357V449.485H885.196H859.893V488.844ZM921.746 488.844V528.202H930.181H938.615V513.021V497.84L941.708 497.861C944.487 497.88 945.671 499.392 953.385 512.761L961.968 527.64L971.61 527.964L981.251 528.288L971.89 512.23L962.529 496.172L965.521 494.354C978.264 486.605 980.592 468.499 970.31 457.105C964.003 450.116 961.521 449.485 940.338 449.485H921.746V488.844ZM988.497 456.514C989.943 460.38 996.381 478.108 1002.8 495.909L1014.48 528.277L1025.07 527.958L1035.67 527.64L1049.54 489.406C1057.17 468.377 1063.42 450.772 1063.43 450.282C1063.44 449.791 1059.58 449.538 1054.85 449.719L1046.26 450.048L1035.96 478.401C1030.3 493.995 1025.39 507.029 1025.06 507.365C1024.72 507.701 1019.68 494.815 1013.86 478.732L1003.28 449.488L994.574 449.487L985.868 449.485L988.497 456.514ZM1073.57 488.844V528.202H1098.87H1124.18V520.33V512.459H1106.74H1089.31V503.462V494.466H1102.81H1116.3V486.032V477.598H1102.81H1089.31V471.414V465.229H1106.74H1124.18V457.357V449.485H1098.87H1073.57V488.844ZM1135.42 488.844V528.202H1143.86H1152.29V513.021V497.84L1155.38 497.861C1158.16 497.88 1159.35 499.392 1167.06 512.761L1175.64 527.64L1185.28 527.964L1194.92 528.288L1185.98 512.931C1181.06 504.484 1177.03 497.382 1177.03 497.148C1177.03 496.914 1179.51 494.317 1182.54 491.377C1193.02 481.212 1193.26 465.946 1183.1 455.794C1177.47 450.173 1174.3 449.485 1154.01 449.485H1135.42V488.844ZM938.615 471.976V480.972H946.854C954.011 480.972 955.414 480.63 957.538 478.37C960.89 474.801 960.752 469.269 957.222 465.74C954.814 463.332 953.451 462.98 946.538 462.98H938.615V471.976ZM1152.29 471.976V480.972H1160.53C1167.69 480.972 1169.09 480.63 1171.21 478.37C1174.57 474.801 1174.43 469.269 1170.9 465.74C1168.49 463.332 1167.13 462.98 1160.21 462.98H1152.29V471.976ZM308.836 487.904C281.429 499.382 229.915 510.802 180.631 516.327C148.963 519.877 132.9 520.756 98.5344 520.822C62.0454 520.89 46.9116 519.825 28.9246 515.922L19.6039 513.9L20.2258 518.521C20.8814 523.393 23.3342 548.465 25.4631 572.058C26.1604 579.789 27.3254 587.356 28.0508 588.874C37.3187 608.25 112.074 615.82 194.126 605.693C261.594 597.365 319.296 577.702 327.647 560.191C329.662 555.965 329.807 558.255 324.659 513.021C321.533 485.554 321.187 483.205 320.294 483.325C319.868 483.382 314.712 485.442 308.836 487.904Z" clip-rule="evenodd"/></svg>